{
    "accessors": [
        {
            "bufferView": 0,
            "componentType": 5126,
            "count": 31,
            "max": [
                -0.012687300331890583,
                0.038061898201704025,
                0.0025387159548699856
            ],
            "min": [
                -0.017792699858546257,
                0.0365280844271183,
                -3.126155934203415e-19
            ],
            "name": "mesh0_coord_accessor",
            "type": "VEC3"
        },
        {
            "bufferView": 1,
            "componentType": 5126,
            "count": 31,
            "max": [
                0.5150380730628967,
                0.8571673035621643,
                6.307397092760155e-17
            ],
            "min": [
                -0.5150380730628967,
                0.8571673035621643,
                -0.5150380730628967
            ],
            "name": "mesh0_norm_accessor",
            "type": "VEC3"
        },
        {
            "bufferView": 2,
            "componentType": 5126,
            "count": 31,
            "max": [
                1.0,
                1.0
            ],
            "min": [
                0.0,
                0.0
            ],
            "name": "mesh0_texcoord_accessor",
            "type": "VEC2"
        },
        {
            "bufferView": 3,
            "componentType": 5125,
            "count": 45,
            "max": [
                30
            ],
            "min": [
                0
            ],
            "name": "mesh0_idx_accessor",
            "type": "SCALAR"
        },
        {
            "bufferView": 4,
            "componentType": 5126,
            "count": 31,
            "max": [
                -0.012687300331890583,
                0.038061898201704025,
                0.0
            ],
            "min": [
                -0.017792699858546257,
                0.0365280844271183,
                -0.0025387159548699856
            ],
            "name": "mesh1_coord_accessor",
            "type": "VEC3"
        },
        {
            "bufferView": 5,
            "componentType": 5126,
            "count": 31,
            "max": [
                0.5150380730628967,
                0.8571673035621643,
                0.5150380730628967
            ],
            "min": [
                -0.5150380730628967,
                0.8571673035621643,
                -0.0
            ],
            "name": "mesh1_norm_accessor",
            "type": "VEC3"
        },
        {
            "bufferView": 6,
            "componentType": 5126,
            "count": 31,
            "max": [
                1.0,
                1.0
            ],
            "min": [
                0.0,
                0.0
            ],
            "name": "mesh1_texcoord_accessor",
            "type": "VEC2"
        },
        {
            "bufferView": 7,
            "componentType": 5125,
            "count": 45,
            "max": [
                30
            ],
            "min": [
                0
            ],
            "name": "mesh1_idx_accessor",
            "type": "SCALAR"
        },
        {
            "bufferView": 8,
            "componentType": 5126,
            "count": 32,
            "max": [
                -0.012687300331890583,
                0.053936898708343506,
                0.0025387159548699856
            ],
            "min": [
                -0.017792699858546257,
                0.038061898201704025,
                -3.126155934203415e-19
            ],
            "name": "mesh2_coord_accessor",
            "type": "VEC3"
        },
        {
            "bufferView": 9,
            "componentType": 5126,
            "count": 32,
            "max": [
                1.0,
                -0.0,
                1.2246468525851679e-16
            ],
            "min": [
                -1.0,
                -0.0,
                -0.9945219159126282
            ],
            "name": "mesh2_norm_accessor",
            "type": "VEC3"
        },
        {
            "bufferView": 10,
            "componentType": 5126,
            "count": 32,
            "max": [
                1.0,
                1.0
            ],
            "min": [
                0.0,
                0.0
            ],
            "name": "mesh2_texcoord_accessor",
            "type": "VEC2"
        },
        {
            "bufferView": 11,
            "componentType": 5125,
            "count": 90,
            "max": [
                31
            ],
            "min": [
                0
            ],
            "name": "mesh2_idx_accessor",
            "type": "SCALAR"
        },
        {
            "bufferView": 12,
            "componentType": 5126,
            "count": 32,
            "max": [
                -0.012687300331890583,
                0.053936898708343506,
                0.0
            ],
            "min": [
                -0.017792699858546257,
                0.038061898201704025,
                -0.0025387159548699856
            ],
            "name": "mesh3_coord_accessor",
            "type": "VEC3"
        },
        {
            "bufferView": 13,
            "componentType": 5126,
            "count": 32,
            "max": [
                1.0,
                -0.0,
                0.9945219159126282
            ],
            "min": [
                -1.0,
                -0.0,
                -0.0
            ],
            "name": "mesh3_norm_accessor",
            "type": "VEC3"
        },
        {
            "bufferView": 14,
            "componentType": 5126,
            "count": 32,
            "max": [
                1.0,
                1.0
            ],
            "min": [
                0.0,
                0.0
            ],
            "name": "mesh3_texcoord_accessor",
            "type": "VEC2"
        },
        {
            "bufferView": 15,
            "componentType": 5125,
            "count": 90,
            "max": [
                31
            ],
            "min": [
                0
            ],
            "name": "mesh3_idx_accessor",
            "type": "SCALAR"
        },
        {
            "bufferView": 16,
            "componentType": 5126,
            "count": 94,
            "max": [
                0.022224999964237213,
                0.053936898708343506,
                0.022224999964237213
            ],
            "min": [
                -0.022224999964237213,
                0.053936898708343506,
                -0.022224999964237213
            ],
            "name": "mesh4_coord_accessor",
            "type": "VEC3"
        },
        {
            "bufferView": 17,
            "componentType": 5126,
            "count": 94,
            "max": [
                0.0,
                1.0,
                0.0
            ],
            "min": [
                0.0,
                1.0,
                0.0
            ],
            "name": "mesh4_norm_accessor",
            "type": "VEC3"
        },
        {
            "bufferView": 18,
            "componentType": 5126,
            "count": 94,
            "max": [
                1.0,
                1.0
            ],
            "min": [
                0.0,
                0.0
            ],
            "name": "mesh4_texcoord_accessor",
            "type": "VEC2"
        },
        {
            "bufferView": 19,
            "componentType": 5125,
            "count": 294,
            "max": [
                93
            ],
            "min": [
                0
            ],
            "name": "mesh4_idx_accessor",
            "type": "SCALAR"
        },
        {
            "bufferView": 20,
            "componentType": 5126,
            "count": 4,
            "max": [
                0.022224999964237213,
                0.053936898708343506,
                0.022224999964237213
            ],
            "min": [
                0.022224999964237213,
                0.0,
                -0.022224999964237213
            ],
            "name": "mesh5_coord_accessor",
            "type": "VEC3"
        },
        {
            "bufferView": 21,
            "componentType": 5126,
            "count": 4,
            "max": [
                1.0,
                0.0,
                0.0
            ],
            "min": [
                1.0,
                0.0,
                0.0
            ],
            "name": "mesh5_norm_accessor",
            "type": "VEC3"
        },
        {
            "bufferView": 22,
            "componentType": 5126,
            "count": 4,
            "max": [
                1.0,
                1.0
            ],
            "min": [
                0.0,
                0.0
            ],
            "name": "mesh5_texcoord_accessor",
            "type": "VEC2"
        },
        {
            "bufferView": 23,
            "componentType": 5125,
            "count": 6,
            "max": [
                3
            ],
            "min": [
                0
            ],
            "name": "mesh5_idx_accessor",
            "type": "SCALAR"
        },
        {
            "bufferView": 24,
            "componentType": 5126,
            "count": 32,
            "max": [
                0.017792699858546257,
                0.053936898708343506,
                0.0025387159548699856
            ],
            "min": [
                0.012687300331890583,
                0.038061898201704025,
                -3.3865006922468234e-19
            ],
            "name": "mesh6_coord_accessor",
            "type": "VEC3"
        },
        {
            "bufferView": 25,
            "componentType": 5126,
            "count": 32,
            "max": [
                1.0,
                -0.0,
                1.2246468525851679e-16
            ],
            "min": [
                -1.0,
                -0.0,
                -0.9945219159126282
            ],
            "name": "mesh6_norm_accessor",
            "type": "VEC3"
        },
        {
            "bufferView": 26,
            "componentType": 5126,
            "count": 32,
            "max": [
                1.0,
                1.0
            ],
            "min": [
                0.0,
                0.0
            ],
            "name": "mesh6_texcoord_accessor",
            "type": "VEC2"
        },
        {
            "bufferView": 27,
            "componentType": 5125,
            "count": 90,
            "max": [
                31
            ],
            "min": [
                0
            ],
            "name": "mesh6_idx_accessor",
            "type": "SCALAR"
        },
        {
            "bufferView": 28,
            "componentType": 5126,
            "count": 32,
            "max": [
                0.017792699858546257,
                0.053936898708343506,
                -2.6034485497863658e-20
            ],
            "min": [
                0.012687300331890583,
                0.038061898201704025,
                -0.0025387159548699856
            ],
            "name": "mesh7_coord_accessor",
            "type": "VEC3"
        },
        {
            "bufferView": 29,
            "componentType": 5126,
            "count": 32,
            "max": [
                1.0,
                -0.0,
                0.9945219159126282
            ],
            "min": [
                -1.0,
                -0.0,
                -0.0
            ],
            "name": "mesh7_norm_accessor",
            "type": "VEC3"
        },
        {
            "bufferView": 30,
            "componentType": 5126,
            "count": 32,
            "max": [
                1.0,
                1.0
            ],
            "min": [
                0.0,
                0.0
            ],
            "name": "mesh7_texcoord_accessor",
            "type": "VEC2"
        },
        {
            "bufferView": 31,
            "componentType": 5125,
            "count": 90,
            "max": [
                31
            ],
            "min": [
                0
            ],
            "name": "mesh7_idx_accessor",
            "type": "SCALAR"
        },
        {
            "bufferView": 32,
            "componentType": 5126,
            "count": 31,
            "max": [
                0.017792699858546257,
                0.038061898201704025,
                0.0025387159548699856
            ],
            "min": [
                0.012687300331890583,
                0.0365280844271183,
                -3.3865006922468234e-19
            ],
            "name": "mesh8_coord_accessor",
            "type": "VEC3"
        },
        {
            "bufferView": 33,
            "componentType": 5126,
            "count": 31,
            "max": [
                0.5150380730628967,
                0.8571673035621643,
                6.307397092760155e-17
            ],
            "min": [
                -0.5150380730628967,
                0.8571673035621643,
                -0.5150380730628967
            ],
            "name": "mesh8_norm_accessor",
            "type": "VEC3"
        },
        {
            "bufferView": 34,
            "componentType": 5126,
            "count": 31,
            "max": [
                1.0,
                1.0
            ],
            "min": [
                0.0,
                0.0
            ],
            "name": "mesh8_texcoord_accessor",
            "type": "VEC2"
        },
        {
            "bufferView": 35,
            "componentType": 5125,
            "count": 45,
            "max": [
                30
            ],
            "min": [
                0
            ],
            "name": "mesh8_idx_accessor",
            "type": "SCALAR"
        },
        {
            "bufferView": 36,
            "componentType": 5126,
            "count": 31,
            "max": [
                0.017792699858546257,
                0.038061898201704025,
                -2.6034485497863658e-20
            ],
            "min": [
                0.012687300331890583,
                0.0365280844271183,
                -0.0025387159548699856
            ],
            "name": "mesh9_coord_accessor",
            "type": "VEC3"
        },
        {
            "bufferView": 37,
            "componentType": 5126,
            "count": 31,
            "max": [
                0.5150380730628967,
                0.8571673035621643,
                0.5150380730628967
            ],
            "min": [
                -0.5150380730628967,
                0.8571673035621643,
                -0.0
            ],
            "name": "mesh9_norm_accessor",
            "type": "VEC3"
        },
        {
            "bufferView": 38,
            "componentType": 5126,
            "count": 31,
            "max": [
                1.0,
                1.0
            ],
            "min": [
                0.0,
                0.0
            ],
            "name": "mesh9_texcoord_accessor",
            "type": "VEC2"
        },
        {
            "bufferView": 39,
            "componentType": 5125,
            "count": 45,
            "max": [
                30
            ],
            "min": [
                0
            ],
            "name": "mesh9_idx_accessor",
            "type": "SCALAR"
        },
        {
            "bufferView": 40,
            "componentType": 5126,
            "count": 34,
            "max": [
                0.022224999964237213,
                0.053936898708343506,
                -0.022224999964237213
            ],
            "min": [
                -0.022224999964237213,
                0.0,
                -0.022224999964237213
            ],
            "name": "mesh10_coord_accessor",
            "type": "VEC3"
        },
        {
            "bufferView": 41,
            "componentType": 5126,
            "count": 34,
            "max": [
                -0.0,
                -0.0,
                -1.0
            ],
            "min": [
                -0.0,
                -0.0,
                -1.0
            ],
            "name": "mesh10_norm_accessor",
            "type": "VEC3"
        },
        {
            "bufferView": 42,
            "componentType": 5126,
            "count": 34,
            "max": [
                1.0,
                1.0
            ],
            "min": [
                0.0,
                0.0
            ],
            "name": "mesh10_texcoord_accessor",
            "type": "VEC2"
        },
        {
            "bufferView": 43,
            "componentType": 5125,
            "count": 102,
            "max": [
                33
            ],
            "min": [
                0
            ],
            "name": "mesh10_idx_accessor",
            "type": "SCALAR"
        },
        {
            "bufferView": 44,
            "componentType": 5126,
            "count": 32,
            "max": [
                -1.2155638304329068e-18,
                0.03113785944879055,
                -0.009525000117719173
            ],
            "min": [
                -0.004216036759316921,
                0.022659340873360634,
                -0.022224999964237213
            ],
            "name": "mesh11_coord_accessor",
            "type": "VEC3"
        },
        {
            "bufferView": 45,
            "componentType": 5126,
            "count": 32,
            "max": [
                0.9945219159126282,
                1.0,
                -0.0
            ],
            "min": [
                -1.2246468525851679e-16,
                -1.0,
                -0.0
            ],
            "name": "mesh11_norm_accessor",
            "type": "VEC3"
        },
        {
            "bufferView": 46,
            "componentType": 5126,
            "count": 32,
            "max": [
                1.0,
                1.0
            ],
            "min": [
                0.0,
                0.0
            ],
            "name": "mesh11_texcoord_accessor",
            "type": "VEC2"
        },
        {
            "bufferView": 47,
            "componentType": 5125,
            "count": 90,
            "max": [
                31
            ],
            "min": [
                0
            ],
            "name": "mesh11_idx_accessor",
            "type": "SCALAR"
        },
        {
            "bufferView": 48,
            "componentType": 5126,
            "count": 32,
            "max": [
                0.004216036759316921,
                0.03113785944879055,
                -0.009525000117719173
            ],
            "min": [
                -1.734723475976807e-18,
                0.022659340873360634,
                -0.022224999964237213
            ],
            "name": "mesh12_coord_accessor",
            "type": "VEC3"
        },
        {
            "bufferView": 49,
            "componentType": 5126,
            "count": 32,
            "max": [
                -0.0,
                1.0,
                0.0
            ],
            "min": [
                -0.9945219159126282,
                -1.0,
                0.0
            ],
            "name": "mesh12_norm_accessor",
            "type": "VEC3"
        },
        {
            "bufferView": 50,
            "componentType": 5126,
            "count": 32,
            "max": [
                1.0,
                1.0
            ],
            "min": [
                0.0,
                0.0
            ],
            "name": "mesh12_texcoord_accessor",
            "type": "VEC2"
        },
        {
            "bufferView": 51,
            "componentType": 5125,
            "count": 90,
            "max": [
                31
            ],
            "min": [
                0
            ],
            "name": "mesh12_idx_accessor",
            "type": "SCALAR"
        },
        {
            "bufferView": 52,
            "componentType": 5126,
            "count": 32,
            "max": [
                -1.2155638304329068e-18,
                0.03113785944879055,
                -0.007840090431272984
            ],
            "min": [
                -0.004216036759316921,
                0.022659340873360634,
                -0.009525000117719173
            ],
            "name": "mesh13_coord_accessor",
            "type": "VEC3"
        },
        {
            "bufferView": 53,
            "componentType": 5126,
            "count": 32,
            "max": [
                0.5122166275978088,
                0.5150380730628967,
                -0.8571673035621643
            ],
            "min": [
                -6.307397092760155e-17,
                -0.5150380730628967,
                -0.8571673035621643
            ],
            "name": "mesh13_norm_accessor",
            "type": "VEC3"
        },
        {
            "bufferView": 54,
            "componentType": 5126,
            "count": 32,
            "max": [
                1.0,
                1.0
            ],
            "min": [
                0.0,
                0.0
            ],
            "name": "mesh13_texcoord_accessor",
            "type": "VEC2"
        },
        {
            "bufferView": 55,
            "componentType": 5125,
            "count": 90,
            "max": [
                31
            ],
            "min": [
                0
            ],
            "name": "mesh13_idx_accessor",
            "type": "SCALAR"
        },
        {
            "bufferView": 56,
            "componentType": 5126,
            "count": 34,
            "max": [
                -1.3872691548060518e-18,
                0.028333699330687523,
                -0.006238829344511032
            ],
            "min": [
                -0.001427238341420889,
                0.025463499128818512,
                -0.007840090431272984
            ],
            "name": "mesh14_coord_accessor",
            "type": "VEC3"
        },
        {
            "bufferView": 57,
            "componentType": 5126,
            "count": 34,
            "max": [
                0.9945219159126282,
                1.0,
                -0.0
            ],
            "min": [
                -1.2246468525851679e-16,
                -1.0,
                -0.0
            ],
            "name": "mesh14_norm_accessor",
            "type": "VEC3"
        },
        {
            "bufferView": 58,
            "componentType": 5126,
            "count": 34,
            "max": [
                1.0,
                1.0
            ],
            "min": [
                0.0,
                0.0
            ],
            "name": "mesh14_texcoord_accessor",
            "type": "VEC2"
        },
        {
            "bufferView": 59,
            "componentType": 5125,
            "count": 96,
            "max": [
                33
            ],
            "min": [
                0
            ],
            "name": "mesh14_idx_accessor",
            "type": "SCALAR"
        },
        {
            "bufferView": 60,
            "componentType": 5126,
            "count": 32,
            "max": [
                0.004216036759316921,
                0.03113785944879055,
                -0.007840090431272984
            ],
            "min": [
                -1.734723475976807e-18,
                0.022659340873360634,
                -0.009525000117719173
            ],
            "name": "mesh15_coord_accessor",
            "type": "VEC3"
        },
        {
            "bufferView": 61,
            "componentType": 5126,
            "count": 32,
            "max": [
                -0.0,
                0.5150380730628967,
                -0.8571673035621643
            ],
            "min": [
                -0.5122166275978088,
                -0.5150380730628967,
                -0.8571673035621643
            ],
            "name": "mesh15_norm_accessor",
            "type": "VEC3"
        },
        {
            "bufferView": 62,
            "componentType": 5126,
            "count": 32,
            "max": [
                1.0,
                1.0
            ],
            "min": [
                0.0,
                0.0
            ],
            "name": "mesh15_texcoord_accessor",
            "type": "VEC2"
        },
        {
            "bufferView": 63,
            "componentType": 5125,
            "count": 90,
            "max": [
                31
            ],
            "min": [
                0
            ],
            "name": "mesh15_idx_accessor",
            "type": "SCALAR"
        },
        {
            "bufferView": 64,
            "componentType": 5126,
            "count": 34,
            "max": [
                0.001427238341420889,
                0.028333699330687523,
                -0.006238829344511032
            ],
            "min": [
                -1.859513390752629e-18,
                0.025463499128818512,
                -0.007840090431272984
            ],
            "name": "mesh16_coord_accessor",
            "type": "VEC3"
        },
        {
            "bufferView": 65,
            "componentType": 5126,
            "count": 34,
            "max": [
                -0.0,
                1.0,
                -0.0
            ],
            "min": [
                -0.9945219159126282,
                -1.0,
                -0.0
            ],
            "name": "mesh16_norm_accessor",
            "type": "VEC3"
        },
        {
            "bufferView": 66,
            "componentType": 5126,
            "count": 34,
            "max": [
                1.0,
                1.0
            ],
            "min": [
                0.0,
                0.0
            ],
            "name": "mesh16_texcoord_accessor",
            "type": "VEC2"
        },
        {
            "bufferView": 67,
            "componentType": 5125,
            "count": 96,
            "max": [
                33
            ],
            "min": [
                0
            ],
            "name": "mesh16_idx_accessor",
            "type": "SCALAR"
        },
        {
            "bufferView": 68,
            "componentType": 5126,
            "count": 82,
            "max": [
                0.006399999838322401,
                0.053936898708343506,
                0.0
            ],
            "min": [
                -0.006399999838322401,
                0.016360044479370117,
                -0.006399999838322401
            ],
            "name": "mesh17_coord_accessor",
            "type": "VEC3"
        },
        {
            "bufferView": 69,
            "componentType": 5126,
            "count": 82,
            "max": [
                1.0,
                -0.0,
                1.0
            ],
            "min": [
                -1.0,
                -0.0,
                -0.0
            ],
            "name": "mesh17_norm_accessor",
            "type": "VEC3"
        },
        {
            "bufferView": 70,
            "componentType": 5126,
            "count": 82,
            "max": [
                1.0,
                1.0
            ],
            "min": [
                0.0,
                0.0
            ],
            "name": "mesh17_texcoord_accessor",
            "type": "VEC2"
        },
        {
            "bufferView": 71,
            "componentType": 5125,
            "count": 246,
            "max": [
                81
            ],
            "min": [
                0
            ],
            "name": "mesh17_idx_accessor",
            "type": "SCALAR"
        },
        {
            "bufferView": 72,
            "componentType": 5126,
            "count": 34,
            "max": [
                -0.022224999964237213,
                0.053936898708343506,
                0.022224999964237213
            ],
            "min": [
                -0.022224999964237213,
                0.0,
                -0.022224999964237213
            ],
            "name": "mesh18_coord_accessor",
            "type": "VEC3"
        },
        {
            "bufferView": 73,
            "componentType": 5126,
            "count": 34,
            "max": [
                -1.0,
                -0.0,
                -0.0
            ],
            "min": [
                -1.0,
                -0.0,
                -0.0
            ],
            "name": "mesh18_norm_accessor",
            "type": "VEC3"
        },
        {
            "bufferView": 74,
            "componentType": 5126,
            "count": 34,
            "max": [
                1.0,
                1.0
            ],
            "min": [
                0.0,
                0.0
            ],
            "name": "mesh18_texcoord_accessor",
            "type": "VEC2"
        },
        {
            "bufferView": 75,
            "componentType": 5125,
            "count": 102,
            "max": [
                33
            ],
            "min": [
                0
            ],
            "name": "mesh18_idx_accessor",
            "type": "SCALAR"
        },
        {
            "bufferView": 76,
            "componentType": 5126,
            "count": 32,
            "max": [
                -0.009525000117719173,
                0.03113785944879055,
                0.004216036759316921
            ],
            "min": [
                -0.022224999964237213,
                0.022659340873360634,
                -5.19159593845112e-19
            ],
            "name": "mesh19_coord_accessor",
            "type": "VEC3"
        },
        {
            "bufferView": 77,
            "componentType": 5126,
            "count": 32,
            "max": [
                -0.0,
                1.0,
                1.2246468525851679e-16
            ],
            "min": [
                -0.0,
                -1.0,
                -0.9945219159126282
            ],
            "name": "mesh19_norm_accessor",
            "type": "VEC3"
        },
        {
            "bufferView": 78,
            "componentType": 5126,
            "count": 32,
            "max": [
                1.0,
                1.0
            ],
            "min": [
                0.0,
                0.0
            ],
            "name": "mesh19_texcoord_accessor",
            "type": "VEC2"
        },
        {
            "bufferView": 79,
            "componentType": 5125,
            "count": 90,
            "max": [
                31
            ],
            "min": [
                0
            ],
            "name": "mesh19_idx_accessor",
            "type": "SCALAR"
        },
        {
            "bufferView": 80,
            "componentType": 5126,
            "count": 32,
            "max": [
                -0.009525000117719173,
                0.03113785944879055,
                0.0
            ],
            "min": [
                -0.022224999964237213,
                0.022659340873360634,
                -0.004216036759316921
            ],
            "name": "mesh20_coord_accessor",
            "type": "VEC3"
        },
        {
            "bufferView": 81,
            "componentType": 5126,
            "count": 32,
            "max": [
                -0.0,
                1.0,
                0.9945219159126282
            ],
            "min": [
                -0.0,
                -1.0,
                -0.0
            ],
            "name": "mesh20_norm_accessor",
            "type": "VEC3"
        },
        {
            "bufferView": 82,
            "componentType": 5126,
            "count": 32,
            "max": [
                1.0,
                1.0
            ],
            "min": [
                0.0,
                0.0
            ],
            "name": "mesh20_texcoord_accessor",
            "type": "VEC2"
        },
        {
            "bufferView": 83,
            "componentType": 5125,
            "count": 90,
            "max": [
                31
            ],
            "min": [
                0
            ],
            "name": "mesh20_idx_accessor",
            "type": "SCALAR"
        },
        {
            "bufferView": 84,
            "componentType": 5126,
            "count": 32,
            "max": [
                -0.007462359499186277,
                0.03113785944879055,
                0.0
            ],
            "min": [
                -0.009525000117719173,
                0.022659340873360634,
                -0.004216036759316921
            ],
            "name": "mesh21_coord_accessor",
            "type": "VEC3"
        },
        {
            "bufferView": 85,
            "componentType": 5126,
            "count": 32,
            "max": [
                -0.8571673035621643,
                0.5150380730628967,
                0.5122166275978088
            ],
            "min": [
                -0.8571673035621643,
                -0.5150380730628967,
                -0.0
            ],
            "name": "mesh21_norm_accessor",
            "type": "VEC3"
        },
        {
            "bufferView": 86,
            "componentType": 5126,
            "count": 32,
            "max": [
                1.0,
                1.0
            ],
            "min": [
                0.0,
                0.0
            ],
            "name": "mesh21_texcoord_accessor",
            "type": "VEC2"
        },
        {
            "bufferView": 87,
            "componentType": 5125,
            "count": 90,
            "max": [
                31
            ],
            "min": [
                0
            ],
            "name": "mesh21_idx_accessor",
            "type": "SCALAR"
        },
        {
            "bufferView": 88,
            "componentType": 5126,
            "count": 32,
            "max": [
                -0.007462359499186277,
                0.03113785944879055,
                0.004216036759316921
            ],
            "min": [
                -0.009525000117719173,
                0.022659340873360634,
                -5.19159593845112e-19
            ],
            "name": "mesh22_coord_accessor",
            "type": "VEC3"
        },
        {
            "bufferView": 89,
            "componentType": 5126,
            "count": 32,
            "max": [
                -0.8571673035621643,
                0.5150380730628967,
                1.4295177850952794e-16
            ],
            "min": [
                -0.8571673035621643,
                -0.5150380730628967,
                -0.5122166275978088
            ],
            "name": "mesh22_norm_accessor",
            "type": "VEC3"
        },
        {
            "bufferView": 90,
            "componentType": 5126,
            "count": 32,
            "max": [
                1.0,
                1.0
            ],
            "min": [
                0.0,
                0.0
            ],
            "name": "mesh22_texcoord_accessor",
            "type": "VEC2"
        },
        {
            "bufferView": 91,
            "componentType": 5125,
            "count": 90,
            "max": [
                31
            ],
            "min": [
                0
            ],
            "name": "mesh22_idx_accessor",
            "type": "SCALAR"
        },
        {
            "bufferView": 92,
            "componentType": 5126,
            "count": 32,
            "max": [
                -0.006349546834826469,
                0.027705049142241478,
                0.000802032183855772
            ],
            "min": [
                -0.007462359499186277,
                0.026092149317264557,
                -1.0214622303241416e-15
            ],
            "name": "mesh23_coord_accessor",
            "type": "VEC3"
        },
        {
            "bufferView": 93,
            "componentType": 5126,
            "count": 32,
            "max": [
                0.0,
                1.0,
                1.2666649413378694e-12
            ],
            "min": [
                0.0,
                -1.0,
                -0.9945219159126282
            ],
            "name": "mesh23_norm_accessor",
            "type": "VEC3"
        },
        {
            "bufferView": 94,
            "componentType": 5126,
            "count": 32,
            "max": [
                1.0,
                1.0
            ],
            "min": [
                0.0,
                0.0
            ],
            "name": "mesh23_texcoord_accessor",
            "type": "VEC2"
        },
        {
            "bufferView": 95,
            "componentType": 5125,
            "count": 90,
            "max": [
                31
            ],
            "min": [
                0
            ],
            "name": "mesh23_idx_accessor",
            "type": "SCALAR"
        },
        {
            "bufferView": 96,
            "componentType": 5126,
            "count": 32,
            "max": [
                -0.006349546834826469,
                0.027705049142241478,
                0.0
            ],
            "min": [
                -0.007462359499186277,
                0.026092149317264557,
                -0.000802032183855772
            ],
            "name": "mesh24_coord_accessor",
            "type": "VEC3"
        },
        {
            "bufferView": 97,
            "componentType": 5126,
            "count": 32,
            "max": [
                -0.0,
                1.0,
                0.9945219159126282
            ],
            "min": [
                -0.0,
                -1.0,
                -0.0
            ],
            "name": "mesh24_norm_accessor",
            "type": "VEC3"
        },
        {
            "bufferView": 98,
            "componentType": 5126,
            "count": 32,
            "max": [
                1.0,
                1.0
            ],
            "min": [
                0.0,
                0.0
            ],
            "name": "mesh24_texcoord_accessor",
            "type": "VEC2"
        },
        {
            "bufferView": 99,
            "componentType": 5125,
            "count": 90,
            "max": [
                31
            ],
            "min": [
                0
            ],
            "name": "mesh24_idx_accessor",
            "type": "SCALAR"
        },
        {
            "bufferView": 100,
            "componentType": 5126,
            "count": 34,
            "max": [
                0.022224999964237213,
                0.053936898708343506,
                0.022224999964237213
            ],
            "min": [
                -0.022224999964237213,
                0.0,
                0.022224999964237213
            ],
            "name": "mesh25_coord_accessor",
            "type": "VEC3"
        },
        {
            "bufferView": 101,
            "componentType": 5126,
            "count": 34,
            "max": [
                0.0,
                0.0,
                1.0
            ],
            "min": [
                0.0,
                0.0,
                1.0
            ],
            "name": "mesh25_norm_accessor",
            "type": "VEC3"
        },
        {
            "bufferView": 102,
            "componentType": 5126,
            "count": 34,
            "max": [
                1.0,
                1.0
            ],
            "min": [
                0.0,
                0.0
            ],
            "name": "mesh25_texcoord_accessor",
            "type": "VEC2"
        },
        {
            "bufferView": 103,
            "componentType": 5125,
            "count": 102,
            "max": [
                33
            ],
            "min": [
                0
            ],
            "name": "mesh25_idx_accessor",
            "type": "SCALAR"
        },
        {
            "bufferView": 104,
            "componentType": 5126,
            "count": 32,
            "max": [
                -1.3591181306093408e-18,
                0.022117050364613533,
                0.022224999964237213
            ],
            "min": [
                -0.003050248371437192,
                0.01598295010626316,
                0.009525000117719173
            ],
            "name": "mesh26_coord_accessor",
            "type": "VEC3"
        },
        {
            "bufferView": 105,
            "componentType": 5126,
            "count": 32,
            "max": [
                0.9945219159126282,
                1.0,
                -0.0
            ],
            "min": [
                -1.2246468525851679e-16,
                -1.0,
                -0.0
            ],
            "name": "mesh26_norm_accessor",
            "type": "VEC3"
        },
        {
            "bufferView": 106,
            "componentType": 5126,
            "count": 32,
            "max": [
                1.0,
                1.0
            ],
            "min": [
                0.0,
                0.0
            ],
            "name": "mesh26_texcoord_accessor",
            "type": "VEC2"
        },
        {
            "bufferView": 107,
            "componentType": 5125,
            "count": 90,
            "max": [
                31
            ],
            "min": [
                0
            ],
            "name": "mesh26_idx_accessor",
            "type": "SCALAR"
        },
        {
            "bufferView": 108,
            "componentType": 5126,
            "count": 32,
            "max": [
                0.003050248371437192,
                0.022117050364613533,
                0.022224999964237213
            ],
            "min": [
                -1.734723475976807e-18,
                0.01598295010626316,
                0.009525000117719173
            ],
            "name": "mesh27_coord_accessor",
            "type": "VEC3"
        },
        {
            "bufferView": 109,
            "componentType": 5126,
            "count": 32,
            "max": [
                -0.0,
                1.0,
                -0.0
            ],
            "min": [
                -0.9945219159126282,
                -1.0,
                -0.0
            ],
            "name": "mesh27_norm_accessor",
            "type": "VEC3"
        },
        {
            "bufferView": 110,
            "componentType": 5126,
            "count": 32,
            "max": [
                1.0,
                1.0
            ],
            "min": [
                0.0,
                0.0
            ],
            "name": "mesh27_texcoord_accessor",
            "type": "VEC2"
        },
        {
            "bufferView": 111,
            "componentType": 5125,
            "count": 90,
            "max": [
                31
            ],
            "min": [
                0
            ],
            "name": "mesh27_idx_accessor",
            "type": "SCALAR"
        },
        {
            "bufferView": 112,
            "componentType": 5126,
            "count": 32,
            "max": [
                -1.3591181306093408e-18,
                0.022117050364613533,
                0.009525000117719173
            ],
            "min": [
                -0.003050248371437192,
                0.01598295010626316,
                0.008159063756465912
            ],
            "name": "mesh28_coord_accessor",
            "type": "VEC3"
        },
        {
            "bufferView": 113,
            "componentType": 5126,
            "count": 32,
            "max": [
                0.5122166275978088,
                0.5150380730628967,
                0.8571673035621643
            ],
            "min": [
                -6.307397092760155e-17,
                -0.5150380730628967,
                0.8571673035621643
            ],
            "name": "mesh28_norm_accessor",
            "type": "VEC3"
        },
        {
            "bufferView": 114,
            "componentType": 5126,
            "count": 32,
            "max": [
                1.0,
                1.0
            ],
            "min": [
                0.0,
                0.0
            ],
            "name": "mesh28_texcoord_accessor",
            "type": "VEC2"
        },
        {
            "bufferView": 115,
            "componentType": 5125,
            "count": 90,
            "max": [
                31
            ],
            "min": [
                0
            ],
            "name": "mesh28_idx_accessor",
            "type": "SCALAR"
        },
        {
            "bufferView": 116,
            "componentType": 5126,
            "count": 34,
            "max": [
                -1.4983176350534129e-18,
                0.019843749701976776,
                0.008159063756465912
            ],
            "min": [
                -0.0007894017617218196,
                0.018256250768899918,
                0.006351129617542028
            ],
            "name": "mesh29_coord_accessor",
            "type": "VEC3"
        },
        {
            "bufferView": 117,
            "componentType": 5126,
            "count": 34,
            "max": [
                0.9945219159126282,
                1.0,
                0.0
            ],
            "min": [
                -1.2246468525851679e-16,
                -1.0,
                0.0
            ],
            "name": "mesh29_norm_accessor",
            "type": "VEC3"
        },
        {
            "bufferView": 118,
            "componentType": 5126,
            "count": 34,
            "max": [
                1.0,
                1.0
            ],
            "min": [
                0.0,
                0.0
            ],
            "name": "mesh29_texcoord_accessor",
            "type": "VEC2"
        },
        {
            "bufferView": 119,
            "componentType": 5125,
            "count": 96,
            "max": [
                33
            ],
            "min": [
                0
            ],
            "name": "mesh29_idx_accessor",
            "type": "SCALAR"
        },
        {
            "bufferView": 120,
            "componentType": 5126,
            "count": 32,
            "max": [
                0.003050248371437192,
                0.022117050364613533,
                0.009525000117719173
            ],
            "min": [
                -1.734723475976807e-18,
                0.01598295010626316,
                0.008159063756465912
            ],
            "name": "mesh30_coord_accessor",
            "type": "VEC3"
        },
        {
            "bufferView": 121,
            "componentType": 5126,
            "count": 32,
            "max": [
                -0.0,
                0.5150380730628967,
                0.8571673035621643
            ],
            "min": [
                -0.5122166275978088,
                -0.5150380730628967,
                0.8571673035621643
            ],
            "name": "mesh30_norm_accessor",
            "type": "VEC3"
        },
        {
            "bufferView": 122,
            "componentType": 5126,
            "count": 32,
            "max": [
                1.0,
                1.0
            ],
            "min": [
                0.0,
                0.0
            ],
            "name": "mesh30_texcoord_accessor",
            "type": "VEC2"
        },
        {
            "bufferView": 123,
            "componentType": 5125,
            "count": 90,
            "max": [
                31
            ],
            "min": [
                0
            ],
            "name": "mesh30_idx_accessor",
            "type": "SCALAR"
        },
        {
            "bufferView": 124,
            "componentType": 5126,
            "count": 34,
            "max": [
                0.0007894017617218196,
                0.019843749701976776,
                0.008159063756465912
            ],
            "min": [
                -9.813624200517021e-16,
                0.018256250768899918,
                0.006351129617542028
            ],
            "name": "mesh31_coord_accessor",
            "type": "VEC3"
        },
        {
            "bufferView": 125,
            "componentType": 5126,
            "count": 34,
            "max": [
                1.8326336542057176e-12,
                1.0,
                -0.0
            ],
            "min": [
                -0.9945219159126282,
                -1.0,
                -0.0
            ],
            "name": "mesh31_norm_accessor",
            "type": "VEC3"
        },
        {
            "bufferView": 126,
            "componentType": 5126,
            "count": 34,
            "max": [
                1.0,
                1.0
            ],
            "min": [
                0.0,
                0.0
            ],
            "name": "mesh31_texcoord_accessor",
            "type": "VEC2"
        },
        {
            "bufferView": 127,
            "componentType": 5125,
            "count": 96,
            "max": [
                33
            ],
            "min": [
                0
            ],
            "name": "mesh31_idx_accessor",
            "type": "SCALAR"
        },
        {
            "bufferView": 128,
            "componentType": 5126,
            "count": 82,
            "max": [
                0.006399999838322401,
                0.053936898708343506,
                0.006399999838322401
            ],
            "min": [
                -0.006399999838322401,
                0.016360044479370117,
                -1.0214622303241416e-15
            ],
            "name": "mesh32_coord_accessor",
            "type": "VEC3"
        },
        {
            "bufferView": 129,
            "componentType": 5126,
            "count": 82,
            "max": [
                1.0,
                -0.0,
                1.596271807227309e-13
            ],
            "min": [
                -1.0,
                -0.0,
                -1.0
            ],
            "name": "mesh32_norm_accessor",
            "type": "VEC3"
        },
        {
            "bufferView": 130,
            "componentType": 5126,
            "count": 82,
            "max": [
                1.0,
                1.0
            ],
            "min": [
                0.0,
                0.0
            ],
            "name": "mesh32_texcoord_accessor",
            "type": "VEC2"
        },
        {
            "bufferView": 131,
            "componentType": 5125,
            "count": 246,
            "max": [
                81
            ],
            "min": [
                0
            ],
            "name": "mesh32_idx_accessor",
            "type": "SCALAR"
        },
        {
            "bufferView": 132,
            "componentType": 5126,
            "count": 32,
            "max": [
                0.007207250222563744,
                0.016360044479370117,
                0.007167767733335495
            ],
            "min": [
                -0.007207250222563744,
                0.01587500050663948,
                -8.826335600476638e-19
            ],
            "name": "mesh33_coord_accessor",
            "type": "VEC3"
        },
        {
            "bufferView": 133,
            "componentType": 5126,
            "count": 32,
            "max": [
                0.5150380730628967,
                -0.8571673035621643,
                6.307397092760155e-17
            ],
            "min": [
                -0.5150380730628967,
                -0.8571673035621643,
                -0.5122166275978088
            ],
            "name": "mesh33_norm_accessor",
            "type": "VEC3"
        },
        {
            "bufferView": 134,
            "componentType": 5126,
            "count": 32,
            "max": [
                1.0,
                1.0
            ],
            "min": [
                0.0,
                0.0
            ],
            "name": "mesh33_texcoord_accessor",
            "type": "VEC2"
        },
        {
            "bufferView": 135,
            "componentType": 5125,
            "count": 90,
            "max": [
                31
            ],
            "min": [
                0
            ],
            "name": "mesh33_idx_accessor",
            "type": "SCALAR"
        },
        {
            "bufferView": 136,
            "componentType": 5126,
            "count": 34,
            "max": [
                0.022224999964237213,
                0.0,
                0.022224999964237213
            ],
            "min": [
                -0.022224999964237213,
                0.0,
                -0.022224999964237213
            ],
            "name": "mesh34_coord_accessor",
            "type": "VEC3"
        },
        {
            "bufferView": 137,
            "componentType": 5126,
            "count": 34,
            "max": [
                -0.0,
                -1.0,
                -0.0
            ],
            "min": [
                -0.0,
                -1.0,
                -0.0
            ],
            "name": "mesh34_norm_accessor",
            "type": "VEC3"
        },
        {
            "bufferView": 138,
            "componentType": 5126,
            "count": 34,
            "max": [
                1.0,
                1.0
            ],
            "min": [
                0.0,
                0.0
            ],
            "name": "mesh34_texcoord_accessor",
            "type": "VEC2"
        },
        {
            "bufferView": 139,
            "componentType": 5125,
            "count": 102,
            "max": [
                33
            ],
            "min": [
                0
            ],
            "name": "mesh34_idx_accessor",
            "type": "SCALAR"
        },
        {
            "bufferView": 140,
            "componentType": 5126,
            "count": 32,
            "max": [
                0.007207250222563744,
                0.01587500050663948,
                0.007167767733335495
            ],
            "min": [
                -0.007207250222563744,
                0.0,
                -8.826335600476638e-19
            ],
            "name": "mesh35_coord_accessor",
            "type": "VEC3"
        },
        {
            "bufferView": 141,
            "componentType": 5126,
            "count": 32,
            "max": [
                1.0,
                0.0,
                1.2246468525851679e-16
            ],
            "min": [
                -1.0,
                0.0,
                -0.9945219159126282
            ],
            "name": "mesh35_norm_accessor",
            "type": "VEC3"
        },
        {
            "bufferView": 142,
            "componentType": 5126,
            "count": 32,
            "max": [
                1.0,
                1.0
            ],
            "min": [
                0.0,
                0.0
            ],
            "name": "mesh35_texcoord_accessor",
            "type": "VEC2"
        },
        {
            "bufferView": 143,
            "componentType": 5125,
            "count": 90,
            "max": [
                31
            ],
            "min": [
                0
            ],
            "name": "mesh35_idx_accessor",
            "type": "SCALAR"
        },
        {
            "bufferView": 144,
            "componentType": 5126,
            "count": 32,
            "max": [
                0.007207250222563744,
                0.016360044479370117,
                0.0
            ],
            "min": [
                -0.007207250222563744,
                0.01587500050663948,
                -0.007167767733335495
            ],
            "name": "mesh36_coord_accessor",
            "type": "VEC3"
        },
        {
            "bufferView": 145,
            "componentType": 5126,
            "count": 32,
            "max": [
                0.5150380730628967,
                -0.8571673035621643,
                0.5122166275978088
            ],
            "min": [
                -0.5150380730628967,
                -0.8571673035621643,
                0.0
            ],
            "name": "mesh36_norm_accessor",
            "type": "VEC3"
        },
        {
            "bufferView": 146,
            "componentType": 5126,
            "count": 32,
            "max": [
                1.0,
                1.0
            ],
            "min": [
                0.0,
                0.0
            ],
            "name": "mesh36_texcoord_accessor",
            "type": "VEC2"
        },
        {
            "bufferView": 147,
            "componentType": 5125,
            "count": 90,
            "max": [
                31
            ],
            "min": [
                0
            ],
            "name": "mesh36_idx_accessor",
            "type": "SCALAR"
        },
        {
            "bufferView": 148,
            "componentType": 5126,
            "count": 32,
            "max": [
                0.007207250222563744,
                0.01587500050663948,
                0.0
            ],
            "min": [
                -0.007207250222563744,
                0.0,
                -0.007167767733335495
            ],
            "name": "mesh37_coord_accessor",
            "type": "VEC3"
        },
        {
            "bufferView": 149,
            "componentType": 5126,
            "count": 32,
            "max": [
                1.0,
                -0.0,
                0.9945219159126282
            ],
            "min": [
                -1.0,
                -0.0,
                -0.0
            ],
            "name": "mesh37_norm_accessor",
            "type": "VEC3"
        },
        {
            "bufferView": 150,
            "componentType": 5126,
            "count": 32,
            "max": [
                1.0,
                1.0
            ],
            "min": [
                0.0,
                0.0
            ],
            "name": "mesh37_texcoord_accessor",
            "type": "VEC2"
        },
        {
            "bufferView": 151,
            "componentType": 5125,
            "count": 90,
            "max": [
                31
            ],
            "min": [
                0
            ],
            "name": "mesh37_idx_accessor",
            "type": "SCALAR"
        }
    ],
    "asset": {
        "generator": "ONSHAPE BY PTC INC, 1.215",
        "version": "2.0"
    },
    "bufferViews": [
        {
            "buffer": 0,
            "byteLength": 372,
            "name": "mesh0_coord_bufferView",
            "target": 34962
        },
        {
            "buffer": 0,
            "byteLength": 372,
            "byteOffset": 372,
            "name": "mesh0_norm_bufferView",
            "target": 34962
        },
        {
            "buffer": 0,
            "byteLength": 248,
            "byteOffset": 744,
            "name": "mesh0_texcoord_bufferView",
            "target": 34962
        },
        {
            "buffer": 0,
            "byteLength": 180,
            "byteOffset": 992,
            "name": "mesh0_idx_bufferView",
            "target": 34963
        },
        {
            "buffer": 0,
            "byteLength": 372,
            "byteOffset": 1172,
            "name": "mesh1_coord_bufferView",
            "target": 34962
        },
        {
            "buffer": 0,
            "byteLength": 372,
            "byteOffset": 1544,
            "name": "mesh1_norm_bufferView",
            "target": 34962
        },
        {
            "buffer": 0,
            "byteLength": 248,
            "byteOffset": 1916,
            "name": "mesh1_texcoord_bufferView",
            "target": 34962
        },
        {
            "buffer": 0,
            "byteLength": 180,
            "byteOffset": 2164,
            "name": "mesh1_idx_bufferView",
            "target": 34963
        },
        {
            "buffer": 0,
            "byteLength": 384,
            "byteOffset": 2344,
            "name": "mesh2_coord_bufferView",
            "target": 34962
        },
        {
            "buffer": 0,
            "byteLength": 384,
            "byteOffset": 2728,
            "name": "mesh2_norm_bufferView",
            "target": 34962
        },
        {
            "buffer": 0,
            "byteLength": 256,
            "byteOffset": 3112,
            "name": "mesh2_texcoord_bufferView",
            "target": 34962
        },
        {
            "buffer": 0,
            "byteLength": 360,
            "byteOffset": 3368,
            "name": "mesh2_idx_bufferView",
            "target": 34963
        },
        {
            "buffer": 0,
            "byteLength": 384,
            "byteOffset": 3728,
            "name": "mesh3_coord_bufferView",
            "target": 34962
        },
        {
            "buffer": 0,
            "byteLength": 384,
            "byteOffset": 4112,
            "name": "mesh3_norm_bufferView",
            "target": 34962
        },
        {
            "buffer": 0,
            "byteLength": 256,
            "byteOffset": 4496,
            "name": "mesh3_texcoord_bufferView",
            "target": 34962
        },
        {
            "buffer": 0,
            "byteLength": 360,
            "byteOffset": 4752,
            "name": "mesh3_idx_bufferView",
            "target": 34963
        },
        {
            "buffer": 0,
            "byteLength": 1128,
            "byteOffset": 5112,
            "name": "mesh4_coord_bufferView",
            "target": 34962
        },
        {
            "buffer": 0,
            "byteLength": 1128,
            "byteOffset": 6240,
            "name": "mesh4_norm_bufferView",
            "target": 34962
        },
        {
            "buffer": 0,
            "byteLength": 752,
            "byteOffset": 7368,
            "name": "mesh4_texcoord_bufferView",
            "target": 34962
        },
        {
            "buffer": 0,
            "byteLength": 1176,
            "byteOffset": 8120,
            "name": "mesh4_idx_bufferView",
            "target": 34963
        },
        {
            "buffer": 0,
            "byteLength": 48,
            "byteOffset": 9296,
            "name": "mesh5_coord_bufferView",
            "target": 34962
        },
        {
            "buffer": 0,
            "byteLength": 48,
            "byteOffset": 9344,
            "name": "mesh5_norm_bufferView",
            "target": 34962
        },
        {
            "buffer": 0,
            "byteLength": 32,
            "byteOffset": 9392,
            "name": "mesh5_texcoord_bufferView",
            "target": 34962
        },
        {
            "buffer": 0,
            "byteLength": 24,
            "byteOffset": 9424,
            "name": "mesh5_idx_bufferView",
            "target": 34963
        },
        {
            "buffer": 0,
            "byteLength": 384,
            "byteOffset": 9448,
            "name": "mesh6_coord_bufferView",
            "target": 34962
        },
        {
            "buffer": 0,
            "byteLength": 384,
            "byteOffset": 9832,
            "name": "mesh6_norm_bufferView",
            "target": 34962
        },
        {
            "buffer": 0,
            "byteLength": 256,
            "byteOffset": 10216,
            "name": "mesh6_texcoord_bufferView",
            "target": 34962
        },
        {
            "buffer": 0,
            "byteLength": 360,
            "byteOffset": 10472,
            "name": "mesh6_idx_bufferView",
            "target": 34963
        },
        {
            "buffer": 0,
            "byteLength": 384,
            "byteOffset": 10832,
            "name": "mesh7_coord_bufferView",
            "target": 34962
        },
        {
            "buffer": 0,
            "byteLength": 384,
            "byteOffset": 11216,
            "name": "mesh7_norm_bufferView",
            "target": 34962
        },
        {
            "buffer": 0,
            "byteLength": 256,
            "byteOffset": 11600,
            "name": "mesh7_texcoord_bufferView",
            "target": 34962
        },
        {
            "buffer": 0,
            "byteLength": 360,
            "byteOffset": 11856,
            "name": "mesh7_idx_bufferView",
            "target": 34963
        },
        {
            "buffer": 0,
            "byteLength": 372,
            "byteOffset": 12216,
            "name": "mesh8_coord_bufferView",
            "target": 34962
        },
        {
            "buffer": 0,
            "byteLength": 372,
            "byteOffset": 12588,
            "name": "mesh8_norm_bufferView",
            "target": 34962
        },
        {
            "buffer": 0,
            "byteLength": 248,
            "byteOffset": 12960,
            "name": "mesh8_texcoord_bufferView",
            "target": 34962
        },
        {
            "buffer": 0,
            "byteLength": 180,
            "byteOffset": 13208,
            "name": "mesh8_idx_bufferView",
            "target": 34963
        },
        {
            "buffer": 0,
            "byteLength": 372,
            "byteOffset": 13388,
            "name": "mesh9_coord_bufferView",
            "target": 34962
        },
        {
            "buffer": 0,
            "byteLength": 372,
            "byteOffset": 13760,
            "name": "mesh9_norm_bufferView",
            "target": 34962
        },
        {
            "buffer": 0,
            "byteLength": 248,
            "byteOffset": 14132,
            "name": "mesh9_texcoord_bufferView",
            "target": 34962
        },
        {
            "buffer": 0,
            "byteLength": 180,
            "byteOffset": 14380,
            "name": "mesh9_idx_bufferView",
            "target": 34963
        },
        {
            "buffer": 0,
            "byteLength": 408,
            "byteOffset": 14560,
            "name": "mesh10_coord_bufferView",
            "target": 34962
        },
        {
            "buffer": 0,
            "byteLength": 408,
            "byteOffset": 14968,
            "name": "mesh10_norm_bufferView",
            "target": 34962
        },
        {
            "buffer": 0,
            "byteLength": 272,
            "byteOffset": 15376,
            "name": "mesh10_texcoord_bufferView",
            "target": 34962
        },
        {
            "buffer": 0,
            "byteLength": 408,
            "byteOffset": 15648,
            "name": "mesh10_idx_bufferView",
            "target": 34963
        },
        {
            "buffer": 0,
            "byteLength": 384,
            "byteOffset": 16056,
            "name": "mesh11_coord_bufferView",
            "target": 34962
        },
        {
            "buffer": 0,
            "byteLength": 384,
            "byteOffset": 16440,
            "name": "mesh11_norm_bufferView",
            "target": 34962
        },
        {
            "buffer": 0,
            "byteLength": 256,
            "byteOffset": 16824,
            "name": "mesh11_texcoord_bufferView",
            "target": 34962
        },
        {
            "buffer": 0,
            "byteLength": 360,
            "byteOffset": 17080,
            "name": "mesh11_idx_bufferView",
            "target": 34963
        },
        {
            "buffer": 0,
            "byteLength": 384,
            "byteOffset": 17440,
            "name": "mesh12_coord_bufferView",
            "target": 34962
        },
        {
            "buffer": 0,
            "byteLength": 384,
            "byteOffset": 17824,
            "name": "mesh12_norm_bufferView",
            "target": 34962
        },
        {
            "buffer": 0,
            "byteLength": 256,
            "byteOffset": 18208,
            "name": "mesh12_texcoord_bufferView",
            "target": 34962
        },
        {
            "buffer": 0,
            "byteLength": 360,
            "byteOffset": 18464,
            "name": "mesh12_idx_bufferView",
            "target": 34963
        },
        {
            "buffer": 0,
            "byteLength": 384,
            "byteOffset": 18824,
            "name": "mesh13_coord_bufferView",
            "target": 34962
        },
        {
            "buffer": 0,
            "byteLength": 384,
            "byteOffset": 19208,
            "name": "mesh13_norm_bufferView",
            "target": 34962
        },
        {
            "buffer": 0,
            "byteLength": 256,
            "byteOffset": 19592,
            "name": "mesh13_texcoord_bufferView",
            "target": 34962
        },
        {
            "buffer": 0,
            "byteLength": 360,
            "byteOffset": 19848,
            "name": "mesh13_idx_bufferView",
            "target": 34963
        },
        {
            "buffer": 0,
            "byteLength": 408,
            "byteOffset": 20208,
            "name": "mesh14_coord_bufferView",
            "target": 34962
        },
        {
            "buffer": 0,
            "byteLength": 408,
            "byteOffset": 20616,
            "name": "mesh14_norm_bufferView",
            "target": 34962
        },
        {
            "buffer": 0,
            "byteLength": 272,
            "byteOffset": 21024,
            "name": "mesh14_texcoord_bufferView",
            "target": 34962
        },
        {
            "buffer": 0,
            "byteLength": 384,
            "byteOffset": 21296,
            "name": "mesh14_idx_bufferView",
            "target": 34963
        },
        {
            "buffer": 0,
            "byteLength": 384,
            "byteOffset": 21680,
            "name": "mesh15_coord_bufferView",
            "target": 34962
        },
        {
            "buffer": 0,
            "byteLength": 384,
            "byteOffset": 22064,
            "name": "mesh15_norm_bufferView",
            "target": 34962
        },
        {
            "buffer": 0,
            "byteLength": 256,
            "byteOffset": 22448,
            "name": "mesh15_texcoord_bufferView",
            "target": 34962
        },
        {
            "buffer": 0,
            "byteLength": 360,
            "byteOffset": 22704,
            "name": "mesh15_idx_bufferView",
            "target": 34963
        },
        {
            "buffer": 0,
            "byteLength": 408,
            "byteOffset": 23064,
            "name": "mesh16_coord_bufferView",
            "target": 34962
        },
        {
            "buffer": 0,
            "byteLength": 408,
            "byteOffset": 23472,
            "name": "mesh16_norm_bufferView",
            "target": 34962
        },
        {
            "buffer": 0,
            "byteLength": 272,
            "byteOffset": 23880,
            "name": "mesh16_texcoord_bufferView",
            "target": 34962
        },
        {
            "buffer": 0,
            "byteLength": 384,
            "byteOffset": 24152,
            "name": "mesh16_idx_bufferView",
            "target": 34963
        },
        {
            "buffer": 0,
            "byteLength": 984,
            "byteOffset": 24536,
            "name": "mesh17_coord_bufferView",
            "target": 34962
        },
        {
            "buffer": 0,
            "byteLength": 984,
            "byteOffset": 25520,
            "name": "mesh17_norm_bufferView",
            "target": 34962
        },
        {
            "buffer": 0,
            "byteLength": 656,
            "byteOffset": 26504,
            "name": "mesh17_texcoord_bufferView",
            "target": 34962
        },
        {
            "buffer": 0,
            "byteLength": 984,
            "byteOffset": 27160,
            "name": "mesh17_idx_bufferView",
            "target": 34963
        },
        {
            "buffer": 0,
            "byteLength": 408,
            "byteOffset": 28144,
            "name": "mesh18_coord_bufferView",
            "target": 34962
        },
        {
            "buffer": 0,
            "byteLength": 408,
            "byteOffset": 28552,
            "name": "mesh18_norm_bufferView",
            "target": 34962
        },
        {
            "buffer": 0,
            "byteLength": 272,
            "byteOffset": 28960,
            "name": "mesh18_texcoord_bufferView",
            "target": 34962
        },
        {
            "buffer": 0,
            "byteLength": 408,
            "byteOffset": 29232,
            "name": "mesh18_idx_bufferView",
            "target": 34963
        },
        {
            "buffer": 0,
            "byteLength": 384,
            "byteOffset": 29640,
            "name": "mesh19_coord_bufferView",
            "target": 34962
        },
        {
            "buffer": 0,
            "byteLength": 384,
            "byteOffset": 30024,
            "name": "mesh19_norm_bufferView",
            "target": 34962
        },
        {
            "buffer": 0,
            "byteLength": 256,
            "byteOffset": 30408,
            "name": "mesh19_texcoord_bufferView",
            "target": 34962
        },
        {
            "buffer": 0,
            "byteLength": 360,
            "byteOffset": 30664,
            "name": "mesh19_idx_bufferView",
            "target": 34963
        },
        {
            "buffer": 0,
            "byteLength": 384,
            "byteOffset": 31024,
            "name": "mesh20_coord_bufferView",
            "target": 34962
        },
        {
            "buffer": 0,
            "byteLength": 384,
            "byteOffset": 31408,
            "name": "mesh20_norm_bufferView",
            "target": 34962
        },
        {
            "buffer": 0,
            "byteLength": 256,
            "byteOffset": 31792,
            "name": "mesh20_texcoord_bufferView",
            "target": 34962
        },
        {
            "buffer": 0,
            "byteLength": 360,
            "byteOffset": 32048,
            "name": "mesh20_idx_bufferView",
            "target": 34963
        },
        {
            "buffer": 0,
            "byteLength": 384,
            "byteOffset": 32408,
            "name": "mesh21_coord_bufferView",
            "target": 34962
        },
        {
            "buffer": 0,
            "byteLength": 384,
            "byteOffset": 32792,
            "name": "mesh21_norm_bufferView",
            "target": 34962
        },
        {
            "buffer": 0,
            "byteLength": 256,
            "byteOffset": 33176,
            "name": "mesh21_texcoord_bufferView",
            "target": 34962
        },
        {
            "buffer": 0,
            "byteLength": 360,
            "byteOffset": 33432,
            "name": "mesh21_idx_bufferView",
            "target": 34963
        },
        {
            "buffer": 0,
            "byteLength": 384,
            "byteOffset": 33792,
            "name": "mesh22_coord_bufferView",
            "target": 34962
        },
        {
            "buffer": 0,
            "byteLength": 384,
            "byteOffset": 34176,
            "name": "mesh22_norm_bufferView",
            "target": 34962
        },
        {
            "buffer": 0,
            "byteLength": 256,
            "byteOffset": 34560,
            "name": "mesh22_texcoord_bufferView",
            "target": 34962
        },
        {
            "buffer": 0,
            "byteLength": 360,
            "byteOffset": 34816,
            "name": "mesh22_idx_bufferView",
            "target": 34963
        },
        {
            "buffer": 0,
            "byteLength": 384,
            "byteOffset": 35176,
            "name": "mesh23_coord_bufferView",
            "target": 34962
        },
        {
            "buffer": 0,
            "byteLength": 384,
            "byteOffset": 35560,
            "name": "mesh23_norm_bufferView",
            "target": 34962
        },
        {
            "buffer": 0,
            "byteLength": 256,
            "byteOffset": 35944,
            "name": "mesh23_texcoord_bufferView",
            "target": 34962
        },
        {
            "buffer": 0,
            "byteLength": 360,
            "byteOffset": 36200,
            "name": "mesh23_idx_bufferView",
            "target": 34963
        },
        {
            "buffer": 0,
            "byteLength": 384,
            "byteOffset": 36560,
            "name": "mesh24_coord_bufferView",
            "target": 34962
        },
        {
            "buffer": 0,
            "byteLength": 384,
            "byteOffset": 36944,
            "name": "mesh24_norm_bufferView",
            "target": 34962
        },
        {
            "buffer": 0,
            "byteLength": 256,
            "byteOffset": 37328,
            "name": "mesh24_texcoord_bufferView",
            "target": 34962
        },
        {
            "buffer": 0,
            "byteLength": 360,
            "byteOffset": 37584,
            "name": "mesh24_idx_bufferView",
            "target": 34963
        },
        {
            "buffer": 0,
            "byteLength": 408,
            "byteOffset": 37944,
            "name": "mesh25_coord_bufferView",
            "target": 34962
        },
        {
            "buffer": 0,
            "byteLength": 408,
            "byteOffset": 38352,
            "name": "mesh25_norm_bufferView",
            "target": 34962
        },
        {
            "buffer": 0,
            "byteLength": 272,
            "byteOffset": 38760,
            "name": "mesh25_texcoord_bufferView",
            "target": 34962
        },
        {
            "buffer": 0,
            "byteLength": 408,
            "byteOffset": 39032,
            "name": "mesh25_idx_bufferView",
            "target": 34963
        },
        {
            "buffer": 0,
            "byteLength": 384,
            "byteOffset": 39440,
            "name": "mesh26_coord_bufferView",
            "target": 34962
        },
        {
            "buffer": 0,
            "byteLength": 384,
            "byteOffset": 39824,
            "name": "mesh26_norm_bufferView",
            "target": 34962
        },
        {
            "buffer": 0,
            "byteLength": 256,
            "byteOffset": 40208,
            "name": "mesh26_texcoord_bufferView",
            "target": 34962
        },
        {
            "buffer": 0,
            "byteLength": 360,
            "byteOffset": 40464,
            "name": "mesh26_idx_bufferView",
            "target": 34963
        },
        {
            "buffer": 0,
            "byteLength": 384,
            "byteOffset": 40824,
            "name": "mesh27_coord_bufferView",
            "target": 34962
        },
        {
            "buffer": 0,
            "byteLength": 384,
            "byteOffset": 41208,
            "name": "mesh27_norm_bufferView",
            "target": 34962
        },
        {
            "buffer": 0,
            "byteLength": 256,
            "byteOffset": 41592,
            "name": "mesh27_texcoord_bufferView",
            "target": 34962
        },
        {
            "buffer": 0,
            "byteLength": 360,
            "byteOffset": 41848,
            "name": "mesh27_idx_bufferView",
            "target": 34963
        },
        {
            "buffer": 0,
            "byteLength": 384,
            "byteOffset": 42208,
            "name": "mesh28_coord_bufferView",
            "target": 34962
        },
        {
            "buffer": 0,
            "byteLength": 384,
            "byteOffset": 42592,
            "name": "mesh28_norm_bufferView",
            "target": 34962
        },
        {
            "buffer": 0,
            "byteLength": 256,
            "byteOffset": 42976,
            "name": "mesh28_texcoord_bufferView",
            "target": 34962
        },
        {
            "buffer": 0,
            "byteLength": 360,
            "byteOffset": 43232,
            "name": "mesh28_idx_bufferView",
            "target": 34963
        },
        {
            "buffer": 0,
            "byteLength": 408,
            "byteOffset": 43592,
            "name": "mesh29_coord_bufferView",
            "target": 34962
        },
        {
            "buffer": 0,
            "byteLength": 408,
            "byteOffset": 44000,
            "name": "mesh29_norm_bufferView",
            "target": 34962
        },
        {
            "buffer": 0,
            "byteLength": 272,
            "byteOffset": 44408,
            "name": "mesh29_texcoord_bufferView",
            "target": 34962
        },
        {
            "buffer": 0,
            "byteLength": 384,
            "byteOffset": 44680,
            "name": "mesh29_idx_bufferView",
            "target": 34963
        },
        {
            "buffer": 0,
            "byteLength": 384,
            "byteOffset": 45064,
            "name": "mesh30_coord_bufferView",
            "target": 34962
        },
        {
            "buffer": 0,
            "byteLength": 384,
            "byteOffset": 45448,
            "name": "mesh30_norm_bufferView",
            "target": 34962
        },
        {
            "buffer": 0,
            "byteLength": 256,
            "byteOffset": 45832,
            "name": "mesh30_texcoord_bufferView",
            "target": 34962
        },
        {
            "buffer": 0,
            "byteLength": 360,
            "byteOffset": 46088,
            "name": "mesh30_idx_bufferView",
            "target": 34963
        },
        {
            "buffer": 0,
            "byteLength": 408,
            "byteOffset": 46448,
            "name": "mesh31_coord_bufferView",
            "target": 34962
        },
        {
            "buffer": 0,
            "byteLength": 408,
            "byteOffset": 46856,
            "name": "mesh31_norm_bufferView",
            "target": 34962
        },
        {
            "buffer": 0,
            "byteLength": 272,
            "byteOffset": 47264,
            "name": "mesh31_texcoord_bufferView",
            "target": 34962
        },
        {
            "buffer": 0,
            "byteLength": 384,
            "byteOffset": 47536,
            "name": "mesh31_idx_bufferView",
            "target": 34963
        },
        {
            "buffer": 0,
            "byteLength": 984,
            "byteOffset": 47920,
            "name": "mesh32_coord_bufferView",
            "target": 34962
        },
        {
            "buffer": 0,
            "byteLength": 984,
            "byteOffset": 48904,
            "name": "mesh32_norm_bufferView",
            "target": 34962
        },
        {
            "buffer": 0,
            "byteLength": 656,
            "byteOffset": 49888,
            "name": "mesh32_texcoord_bufferView",
            "target": 34962
        },
        {
            "buffer": 0,
            "byteLength": 984,
            "byteOffset": 50544,
            "name": "mesh32_idx_bufferView",
            "target": 34963
        },
        {
            "buffer": 0,
            "byteLength": 384,
            "byteOffset": 51528,
            "name": "mesh33_coord_bufferView",
            "target": 34962
        },
        {
            "buffer": 0,
            "byteLength": 384,
            "byteOffset": 51912,
            "name": "mesh33_norm_bufferView",
            "target": 34962
        },
        {
            "buffer": 0,
            "byteLength": 256,
            "byteOffset": 52296,
            "name": "mesh33_texcoord_bufferView",
            "target": 34962
        },
        {
            "buffer": 0,
            "byteLength": 360,
            "byteOffset": 52552,
            "name": "mesh33_idx_bufferView",
            "target": 34963
        },
        {
            "buffer": 0,
            "byteLength": 408,
            "byteOffset": 52912,
            "name": "mesh34_coord_bufferView",
            "target": 34962
        },
        {
            "buffer": 0,
            "byteLength": 408,
            "byteOffset": 53320,
            "name": "mesh34_norm_bufferView",
            "target": 34962
        },
        {
            "buffer": 0,
            "byteLength": 272,
            "byteOffset": 53728,
            "name": "mesh34_texcoord_bufferView",
            "target": 34962
        },
        {
            "buffer": 0,
            "byteLength": 408,
            "byteOffset": 54000,
            "name": "mesh34_idx_bufferView",
            "target": 34963
        },
        {
            "buffer": 0,
            "byteLength": 384,
            "byteOffset": 54408,
            "name": "mesh35_coord_bufferView",
            "target": 34962
        },
        {
            "buffer": 0,
            "byteLength": 384,
            "byteOffset": 54792,
            "name": "mesh35_norm_bufferView",
            "target": 34962
        },
        {
            "buffer": 0,
            "byteLength": 256,
            "byteOffset": 55176,
            "name": "mesh35_texcoord_bufferView",
            "target": 34962
        },
        {
            "buffer": 0,
            "byteLength": 360,
            "byteOffset": 55432,
            "name": "mesh35_idx_bufferView",
            "target": 34963
        },
        {
            "buffer": 0,
            "byteLength": 384,
            "byteOffset": 55792,
            "name": "mesh36_coord_bufferView",
            "target": 34962
        },
        {
            "buffer": 0,
            "byteLength": 384,
            "byteOffset": 56176,
            "name": "mesh36_norm_bufferView",
            "target": 34962
        },
        {
            "buffer": 0,
            "byteLength": 256,
            "byteOffset": 56560,
            "name": "mesh36_texcoord_bufferView",
            "target": 34962
        },
        {
            "buffer": 0,
            "byteLength": 360,
            "byteOffset": 56816,
            "name": "mesh36_idx_bufferView",
            "target": 34963
        },
        {
            "buffer": 0,
            "byteLength": 384,
            "byteOffset": 57176,
            "name": "mesh37_coord_bufferView",
            "target": 34962
        },
        {
            "buffer": 0,
            "byteLength": 384,
            "byteOffset": 57560,
            "name": "mesh37_norm_bufferView",
            "target": 34962
        },
        {
            "buffer": 0,
            "byteLength": 256,
            "byteOffset": 57944,
            "name": "mesh37_texcoord_bufferView",
            "target": 34962
        },
        {
            "buffer": 0,
            "byteLength": 360,
            "byteOffset": 58200,
            "name": "mesh37_idx_bufferView",
            "target": 34963
        }
    ],
    "buffers": [
        {
            "byteLength": 58560,
            "name": "Total_buffer",
            "uri": "data:application/octet-stream;base64,"
        }
    ],
    "extensionsUsed": [
        "PTC_onshape_metadata"
    ],
    "materials": [
        {
            "doubleSided": true,
            "name": "0.800000_0.776471_0.713725_0.000000_0.000000",
            "pbrMetallicRoughness": {
                "baseColorFactor": [
                    0.800000011920929,
                    0.7764706015586853,
                    0.7137255072593689,
                    1.0
                ],
                "metallicFactor": 0.0
            }
        }
    ],
    "meshes": [
        {
            "name": "mesh0_mesh",
            "primitives": [
                {
                    "attributes": {
                        "NORMAL": 1,
                        "POSITION": 0,
                        "TEXCOORD_0": 2
                    },
                    "indices": 3,
                    "material": 0
                },
                {
                    "attributes": {
                        "NORMAL": 5,
                        "POSITION": 4,
                        "TEXCOORD_0": 6
                    },
                    "indices": 7,
                    "material": 0
                },
                {
                    "attributes": {
                        "NORMAL": 9,
                        "POSITION": 8,
                        "TEXCOORD_0": 10
                    },
                    "indices": 11,
                    "material": 0
                },
                {
                    "attributes": {
                        "NORMAL": 13,
                        "POSITION": 12,
                        "TEXCOORD_0": 14
                    },
                    "indices": 15,
                    "material": 0
                },
                {
                    "attributes": {
                        "NORMAL": 17,
                        "POSITION": 16,
                        "TEXCOORD_0": 18
                    },
                    "indices": 19,
                    "material": 0
                },
                {
                    "attributes": {
                        "NORMAL": 21,
                        "POSITION": 20,
                        "TEXCOORD_0": 22
                    },
                    "indices": 23,
                    "material": 0
                },
                {
                    "attributes": {
                        "NORMAL": 25,
                        "POSITION": 24,
                        "TEXCOORD_0": 26
                    },
                    "indices": 27,
                    "material": 0
                },
                {
                    "attributes": {
                        "NORMAL": 29,
                        "POSITION": 28,
                        "TEXCOORD_0": 30
                    },
                    "indices": 31,
                    "material": 0
                },
                {
                    "attributes": {
                        "NORMAL": 33,
                        "POSITION": 32,
                        "TEXCOORD_0": 34
                    },
                    "indices": 35,
                    "material": 0
                },
                {
                    "attributes": {
                        "NORMAL": 37,
                        "POSITION": 36,
                        "TEXCOORD_0": 38
                    },
                    "indices": 39,
                    "material": 0
                },
                {
                    "attributes": {
                        "NORMAL": 41,
                        "POSITION": 40,
                        "TEXCOORD_0": 42
                    },
                    "indices": 43,
                    "material": 0
                },
                {
                    "attributes": {
                        "NORMAL": 45,
                        "POSITION": 44,
                        "TEXCOORD_0": 46
                    },
                    "indices": 47,
                    "material": 0
                },
                {
                    "attributes": {
                        "NORMAL": 49,
                        "POSITION": 48,
                        "TEXCOORD_0": 50
                    },
                    "indices": 51,
                    "material": 0
                },
                {
                    "attributes": {
                        "NORMAL": 53,
                        "POSITION": 52,
                        "TEXCOORD_0": 54
                    },
                    "indices": 55,
                    "material": 0
                },
                {
                    "attributes": {
                        "NORMAL": 57,
                        "POSITION": 56,
                        "TEXCOORD_0": 58
                    },
                    "indices": 59,
                    "material": 0
                },
                {
                    "attributes": {
                        "NORMAL": 61,
                        "POSITION": 60,
                        "TEXCOORD_0": 62
                    },
                    "indices": 63,
                    "material": 0
                },
                {
                    "attributes": {
                        "NORMAL": 65,
                        "POSITION": 64,
                        "TEXCOORD_0": 66
                    },
                    "indices": 67,
                    "material": 0
                },
                {
                    "attributes": {
                        "NORMAL": 69,
                        "POSITION": 68,
                        "TEXCOORD_0": 70
                    },
                    "indices": 71,
                    "material": 0
                },
                {
                    "attributes": {
                        "NORMAL": 73,
                        "POSITION": 72,
                        "TEXCOORD_0": 74
                    },
                    "indices": 75,
                    "material": 0
                },
                {
                    "attributes": {
                        "NORMAL": 77,
                        "POSITION": 76,
                        "TEXCOORD_0": 78
                    },
                    "indices": 79,
                    "material": 0
                },
                {
                    "attributes": {
                        "NORMAL": 81,
                        "POSITION": 80,
                        "TEXCOORD_0": 82
                    },
                    "indices": 83,
                    "material": 0
                },
                {
                    "attributes": {
                        "NORMAL": 85,
                        "POSITION": 84,
                        "TEXCOORD_0": 86
                    },
                    "indices": 87,
                    "material": 0
                },
                {
                    "attributes": {
                        "NORMAL": 89,
                        "POSITION": 88,
                        "TEXCOORD_0": 90
                    },
                    "indices": 91,
                    "material": 0
                },
                {
                    "attributes": {
                        "NORMAL": 93,
                        "POSITION": 92,
                        "TEXCOORD_0": 94
                    },
                    "indices": 95,
                    "material": 0
                },
                {
                    "attributes": {
                        "NORMAL": 97,
                        "POSITION": 96,
                        "TEXCOORD_0": 98
                    },
                    "indices": 99,
                    "material": 0
                },
                {
                    "attributes": {
                        "NORMAL": 101,
                        "POSITION": 100,
                        "TEXCOORD_0": 102
                    },
                    "indices": 103,
                    "material": 0
                },
                {
                    "attributes": {
                        "NORMAL": 105,
                        "POSITION": 104,
                        "TEXCOORD_0": 106
                    },
                    "indices": 107,
                    "material": 0
                },
                {
                    "attributes": {
                        "NORMAL": 109,
                        "POSITION": 108,
                        "TEXCOORD_0": 110
                    },
                    "indices": 111,
                    "material": 0
                },
                {
                    "attributes": {
                        "NORMAL": 113,
                        "POSITION": 112,
                        "TEXCOORD_0": 114
                    },
                    "indices": 115,
                    "material": 0
                },
                {
                    "attributes": {
                        "NORMAL": 117,
                        "POSITION": 116,
                        "TEXCOORD_0": 118
                    },
                    "indices": 119,
                    "material": 0
                },
                {
                    "attributes": {
                        "NORMAL": 121,
                        "POSITION": 120,
                        "TEXCOORD_0": 122
                    },
                    "indices": 123,
                    "material": 0
                },
                {
                    "attributes": {
                        "NORMAL": 125,
                        "POSITION": 124,
                        "TEXCOORD_0": 126
                    },
                    "indices": 127,
                    "material": 0
                },
                {
                    "attributes": {
                        "NORMAL": 129,
                        "POSITION": 128,
                        "TEXCOORD_0": 130
                    },
                    "indices": 131,
                    "material": 0
                },
                {
                    "attributes": {
                        "NORMAL": 133,
                        "POSITION": 132,
                        "TEXCOORD_0": 134
                    },
                    "indices": 135,
                    "material": 0
                },
                {
                    "attributes": {
                        "NORMAL": 137,
                        "POSITION": 136,
                        "TEXCOORD_0": 138
                    },
                    "indices": 139,
                    "material": 0
                },
                {
                    "attributes": {
                        "NORMAL": 141,
                        "POSITION": 140,
                        "TEXCOORD_0": 142
                    },
                    "indices": 143,
                    "material": 0
                },
                {
                    "attributes": {
                        "NORMAL": 145,
                        "POSITION": 144,
                        "TEXCOORD_0": 146
                    },
                    "indices": 147,
                    "material": 0
                },
                {
                    "attributes": {
                        "NORMAL": 149,
                        "POSITION": 148,
                        "TEXCOORD_0": 150
                    },
                    "indices": 151,
                    "material": 0
                }
            ]
        }
    ],
    "nodes": [
        {
            "extensions": {
                "PTC_onshape_metadata": {
                    "entity_type": "Body",
                    "id": [
                        "JHD"
                    ]
                }
            },
            "mesh": 0,
            "name": "Part 1"
        }
    ],
    "scene": 0,
    "scenes": [
        {
            "name": "Root",
            "nodes": [
                0
            ]
        }
    ]
}